<svg width="368" height="87" viewBox="0 0 368 87" fill="none" xmlns="http://www.w3.org/2000/svg">
<path d="M21.496 63V33.776H6.832V26.08H46.56V33.776H31.896V63H21.496ZM50.4027 63V26.08H73.1787C78.1014 26.08 81.7934 27.1373 84.2547 29.252C86.7507 31.332 87.9987 34.3653 87.9987 38.352C87.9987 41.2293 87.3054 43.6213 85.9187 45.528C84.5667 47.4347 82.5907 48.856 79.9907 49.792L88.3627 63H76.5067L69.3307 51.144H60.8027V63H50.4027ZM72.2427 33.776H60.8027V43.708H72.2427C75.8134 43.708 77.5987 42.1307 77.5987 38.976V38.456C77.5987 35.336 75.8134 33.776 72.2427 33.776ZM89.0757 63L107.068 26.08H118.092L136.084 63H125.008L120.952 54.264H103.532L99.5277 63H89.0757ZM106.86 47.192H117.728L112.32 35.544L106.86 47.192ZM157.547 63.676C153.109 63.676 149.157 62.896 145.691 61.336C142.259 59.7413 139.555 57.5227 137.579 54.68C135.637 51.8027 134.667 48.4227 134.667 44.54C134.667 40.6573 135.637 37.2947 137.579 34.452C139.555 31.6093 142.259 29.408 145.691 27.848C149.157 26.288 153.109 25.508 157.547 25.508C161.429 25.508 164.844 26.0627 167.791 27.172C170.737 28.2813 173.164 29.8067 175.071 31.748C176.977 33.6547 178.26 35.804 178.919 38.196L169.611 40.432C168.883 38.6293 167.912 37.2253 166.699 36.22C165.485 35.18 164.099 34.452 162.539 34.036C161.013 33.62 159.401 33.412 157.703 33.412C155.415 33.412 153.317 33.8107 151.411 34.608C149.504 35.3707 147.979 36.532 146.835 38.092C145.725 39.652 145.171 41.628 145.171 44.02V45.06C145.171 47.4173 145.725 49.3933 146.835 50.988C147.979 52.548 149.504 53.7267 151.411 54.524C153.317 55.2867 155.415 55.668 157.703 55.668C159.401 55.668 161.013 55.46 162.539 55.044C164.099 54.628 165.485 53.9173 166.699 52.912C167.912 51.872 168.883 50.4507 169.611 48.648L178.919 50.884C178.26 53.276 176.977 55.4427 175.071 57.384C173.164 59.2907 170.737 60.816 167.791 61.96C164.844 63.104 161.429 63.676 157.547 63.676ZM182.993 63V26.08H217.313V33.776H193.393V40.64H214.973V48.024H193.393V55.304H217.677V63H182.993ZM222.133 63V54.056H231.961V63H222.133ZM256.704 63.624C252.024 63.624 248.038 62.8093 244.744 61.18C241.486 59.516 238.99 57.2453 237.256 54.368C235.523 51.4907 234.656 48.232 234.656 44.592C234.656 40.9173 235.506 37.6413 237.204 34.764C238.938 31.8867 241.451 29.616 244.744 27.952C248.038 26.288 252.024 25.456 256.704 25.456C261.419 25.456 265.406 26.288 268.664 27.952C271.958 29.5813 274.454 31.8347 276.152 34.712C277.886 37.5893 278.752 40.8827 278.752 44.592C278.752 48.232 277.886 51.4907 276.152 54.368C274.454 57.2453 271.958 59.516 268.664 61.18C265.406 62.8093 261.419 63.624 256.704 63.624ZM256.704 55.72C260.24 55.72 263.048 54.8013 265.128 52.964C267.208 51.092 268.248 48.5093 268.248 45.216V43.864C268.248 40.5707 267.208 38.0053 265.128 36.168C263.048 34.296 260.24 33.36 256.704 33.36C253.168 33.36 250.36 34.296 248.28 36.168C246.2 38.0053 245.16 40.5707 245.16 43.864V45.216C245.16 48.5093 246.2 51.092 248.28 52.964C250.36 54.8013 253.168 55.72 256.704 55.72ZM283.438 63V26.08H294.098L311.778 46.776H311.83V26.08H321.502V63H313.546L293.162 39.184H293.11V63H283.438ZM327.516 63V26.08H361.836V33.776H337.916V40.64H359.496V48.024H337.916V55.304H362.2V63H327.516Z" fill="black"/>
<line x1="3.5" y1="0.5" x2="367.5" y2="0.5" stroke="black" stroke-linecap="round" stroke-dasharray="20 10"/>
<line y1="86.5" x2="365" y2="86.5" stroke="black" stroke-dasharray="20 10"/>
</svg>
